<svg width="105" height="105" viewBox="0 0 105 105" fill="none" xmlns="http://www.w3.org/2000/svg">
<g clip-path="url(#clip0_58_524)">
<path d="M104.751 40.9674C104.379 40.4731 104.007 40.1012 102.148 39.9787C101.653 39.9787 100.166 39.8518 97.5625 39.8518C90.7375 39.8518 86.03 41.9606 83.6719 46.0512C84.2932 41.9606 80.325 39.8518 71.645 39.8518C61.4775 39.8518 55.0288 43.9424 52.4257 52.2506C51.4369 55.3524 51.4369 57.8331 52.1807 59.8193H49.7C47.8407 59.9374 45.36 60.0643 43.75 60.0643C40.0313 60.0643 37.6688 59.4431 36.8025 58.2049C36.0588 57.0893 36.0588 54.9806 37.0519 51.8787C38.6619 46.7949 42.5075 44.5637 48.7069 44.5637C51.9313 44.5637 55.0288 44.9356 55.0288 44.9356C55.4007 44.9356 55.65 44.4412 55.65 44.0693L55.5275 43.6974L55.2782 41.9606C55.1557 40.8449 54.285 40.2237 52.7975 39.9787C51.4369 39.8518 50.3169 39.8518 48.8294 39.8518H48.7069C40.6482 39.8518 34.9432 42.5818 31.8457 47.7881C32.9613 42.4549 29.2382 39.8518 20.685 39.8518C15.8507 39.8518 12.3725 39.9787 10.3907 40.2237C8.78066 40.4731 7.78753 41.0943 7.41566 42.2099L6.67191 44.4412C6.54941 44.8131 6.79878 45.0624 7.29316 45.0624C7.66503 45.0624 9.15253 44.8131 11.6332 44.6862C14.0667 44.4806 16.5064 44.3566 18.9482 44.3143C23.66 44.3143 25.7688 45.5568 25.025 47.9106C24.8982 48.4093 24.5263 48.7812 23.9094 48.9037C19.4469 49.6474 15.8507 50.1462 13.2432 50.5181C5.80566 51.5068 1.46566 53.7381 0.350031 57.4612C-1.26434 62.5449 2.70378 65.0212 12.25 65.0212C16.9663 65.0212 21.0569 64.7762 24.2813 64.1549C26.1407 63.7831 27.1338 63.4112 27.5057 62.1731L29.2382 56.4681C29.1157 62.1731 32.9569 65.0212 41.1425 65.0212C44.6163 65.0212 47.9632 64.8987 49.5732 64.6493C51.1875 64.4043 52.0538 64.0324 52.4257 62.7899L52.7975 61.0574C54.5344 63.7831 58.38 65.1481 64.2075 65.1481C70.4069 65.1481 74.0032 65.0212 74.9919 64.6493C75.3509 64.5699 75.6853 64.4046 75.9665 64.1676C76.2476 63.9306 76.4672 63.6291 76.6063 63.2887L76.7288 62.9168L77.4725 60.5587C77.5994 60.1868 77.35 59.9374 76.8513 59.9374L72.8875 60.1868C70.28 60.3137 68.1757 60.4362 66.6838 60.4362C63.8357 60.4362 61.9763 60.1868 60.8563 59.8149C59.2463 59.1937 58.5025 58.0781 58.625 56.2187L71.1507 54.6087C76.7288 53.8649 80.5744 52.1281 82.4338 49.4024L78.0938 63.9056C77.9713 64.1549 78.0938 64.4043 78.2163 64.5268C78.3432 64.6493 78.5882 64.7762 79.0869 64.7762H84.2932C85.1594 64.7762 85.5313 64.2774 85.6582 63.9056L90.2432 47.9106C90.8644 45.8062 92.7238 44.8131 96.1932 44.8131C99.2994 44.8131 101.531 44.8131 103.018 44.9356H103.141C103.39 44.9356 103.884 44.8131 104.256 44.1918L105 41.9606C105 41.5887 105 41.2168 104.751 40.9674ZM21.1794 60.0687C19.5694 60.3181 17.2113 60.4406 14.2363 60.4406C8.90316 60.4406 6.67191 59.3249 7.29316 57.2162C7.78753 55.7287 9.15253 54.7356 11.3838 54.4862L23.415 52.8762L21.1794 60.0687ZM76.6063 47.1624C76.1104 48.7753 73.7538 49.8924 69.5363 50.5137L59.4957 51.8743L59.7407 51.0081C60.6113 48.2781 61.7269 46.5456 63.2144 45.5524C64.7019 44.5608 67.1811 44.0649 70.6519 44.0649C75.2457 44.1874 77.2319 45.1806 76.6063 47.1624Z" fill="black"/>
</g>
<defs>
<clipPath id="clip0_58_524">
<rect width="105" height="105" fill="white"/>
</clipPath>
</defs>
</svg>
