<svg width="87" height="105" viewBox="0 0 87 105" fill="none" xmlns="http://www.w3.org/2000/svg">
<path d="M64.3819 0.052546C64.1588 -0.196829 56.1197 0.150984 49.1241 7.7438C42.1284 15.33 43.2047 24.0319 43.3622 24.255C43.5197 24.4782 53.3372 24.826 59.6044 15.9994C65.8716 7.17286 64.605 0.308484 64.3819 0.052546ZM86.13 77.0504C85.815 76.4204 70.8722 68.9522 72.2634 54.5935C73.6547 40.2347 83.2556 36.2907 83.4066 35.8641C83.5575 35.4375 79.4887 30.6797 75.1772 28.2713C72.0109 26.5749 68.5076 25.6021 64.92 25.4232C64.2113 25.4035 61.7503 24.7997 56.6906 26.1844C53.3569 27.0966 45.8428 30.0497 43.7756 30.1679C41.7019 30.286 35.5331 26.7422 28.8984 25.8038C24.6525 24.9835 20.1506 26.6635 16.9284 27.9563C13.7128 29.2425 7.59656 32.9044 3.31781 42.6366C-0.960936 52.3622 1.27688 67.771 2.87813 72.5616C4.47938 77.3522 6.97969 85.1879 11.2322 90.9104C15.0122 97.3679 20.0259 101.85 22.1194 103.373C24.2128 104.895 30.1191 105.906 34.2141 103.812C37.5084 101.791 43.4541 100.629 45.8034 100.715C48.1462 100.8 52.7663 101.725 57.4978 104.252C61.245 105.545 64.7887 105.007 68.3391 103.563C71.8894 102.113 77.0278 96.6132 83.0259 85.4635C85.3009 80.2791 86.3356 77.4747 86.13 77.0504Z" fill="black"/>
</svg>
