<svg width="105" height="105" viewBox="0 0 105 105" fill="none" xmlns="http://www.w3.org/2000/svg">
<g clip-path="url(#clip0_58_515)">
<path d="M78.5881 63.875V40.7925H83.9344V59.185H93.2969V63.8662H78.5881V63.875ZM35.7831 49.49L48.8206 39.4625L52.5 42.4681L40.1319 51.8306L42.805 54.1712L55.1731 44.4762L58.8525 47.4863C54.7494 50.7429 50.6267 53.9746 46.4844 57.1812L49.1531 59.5262L61.5344 49.4856L61.53 40.7969H66.8806V59.1894H76.5756V63.8706H61.8669V55.1775L48.825 65.205L35.7831 55.1775C35.1531 58.3669 32.9263 61.1275 30.0431 62.5887C28.7912 63.2261 27.4356 63.635 26.04 63.7962C25.2394 63.8925 24.4344 63.8706 23.6294 63.8706H15.3825V40.7969H24.8938C27.3817 40.8208 29.7896 41.6789 31.7319 43.2337C33.7181 44.8088 35.1356 47.0488 35.7875 49.49M20.405 45.4781V59.5219L24.5744 59.5175C25.4507 59.4881 26.3101 59.2682 27.0928 58.8731C27.8756 58.4779 28.5629 57.917 29.1069 57.2294C30.0254 56.0768 30.5895 54.6823 30.7309 53.2153C30.8722 51.7483 30.5847 50.2718 29.9031 48.965C29.4716 48.1341 28.8673 47.4052 28.1309 46.8272C27.3944 46.2492 26.5427 45.8354 25.6331 45.6137C24.9069 45.4387 24.1544 45.4825 23.415 45.4738L20.405 45.4781ZM51.7125 0H53.1869C61.4328 0.107677 69.5361 2.16611 76.8337 6.00688C83.9555 9.75464 90.129 15.0768 94.885 21.5687C101.31 30.3202 104.845 40.8571 105 51.7125V53.2875C104.837 66.3595 99.7863 78.897 90.8425 88.4319C86.0221 93.5793 80.2118 97.7 73.7599 100.547C67.3081 103.394 60.3477 104.909 53.2962 105H51.7169C45.5112 104.906 39.3713 103.712 33.5825 101.474C26.5282 98.7339 20.1496 94.5014 14.8837 89.0662C9.24492 83.2676 5.01472 76.2502 2.52 68.5563C0.930797 63.6205 0.0815786 58.4765 0 53.2919L0 51.7125C0.16547 41.7429 3.19034 32.0305 8.715 23.73C13.8697 15.9488 20.9747 9.6553 29.3213 5.4775C36.282 2.0015 43.9332 0.129793 51.7125 0ZM51.0431 5.38125C40.7816 5.6727 30.8991 9.32293 22.9119 15.7719C16.3819 21.034 11.3702 27.9393 8.39125 35.7788C4.06718 47.2839 4.36983 60.017 9.23563 71.3037C12.5929 79.0171 17.9485 85.6943 24.7494 90.6456C30.9287 95.1513 38.1179 98.0744 45.6881 99.1594C52.0581 100.074 58.6163 99.7019 64.8331 98.0219C73.3424 95.7232 81.0353 91.0816 87.0362 84.6256C93.0414 78.1795 97.1134 70.175 98.7875 61.5256C100.096 54.7397 99.9138 47.7505 98.2538 41.0419C96.3224 33.3079 92.4605 26.1904 87.0295 20.3553C81.5984 14.5203 74.7758 10.1585 67.2 7.67812C61.9884 5.98121 56.5212 5.20399 51.0431 5.38125Z" fill="black"/>
</g>
<defs>
<clipPath id="clip0_58_515">
<rect width="105" height="105" fill="white"/>
</clipPath>
</defs>
</svg>
