<svg width="21" height="21" viewBox="0 0 21 21" fill="none" xmlns="http://www.w3.org/2000/svg">
<g clip-path="url(#clip0_50_883)">
<path d="M20.25 10.125C20.25 4.53315 15.7168 0 10.125 0C4.53315 0 0 4.53315 0 10.125C0 15.1786 3.70259 19.3675 8.54297 20.127V13.0518H5.97217V10.125H8.54297V7.89434C8.54297 5.35676 10.0546 3.95508 12.3674 3.95508C13.4751 3.95508 14.6338 4.15283 14.6338 4.15283V6.64453H13.3571C12.0993 6.64453 11.707 7.42503 11.707 8.22577V10.125H14.5151L14.0662 13.0518H11.707V20.127C16.5474 19.3675 20.25 15.1787 20.25 10.125Z" fill="#1877F2"/>
<path d="M14.0662 13.0518L14.5151 10.125H11.707V8.22577C11.707 7.42495 12.0993 6.64453 13.3571 6.64453H14.6338V4.15283C14.6338 4.15283 13.4751 3.95508 12.3673 3.95508C10.0546 3.95508 8.54297 5.35676 8.54297 7.89434V10.125H5.97217V13.0518H8.54297V20.127C9.06632 20.209 9.59526 20.2501 10.125 20.25C10.6547 20.2502 11.1837 20.209 11.707 20.127V13.0518H14.0662Z" fill="white"/>
</g>
<defs>
<clipPath id="clip0_50_883">
<rect width="20.25" height="20.25" fill="white"/>
</clipPath>
</defs>
</svg>
