<svg width="57" height="40" viewBox="0 0 57 40" fill="none" xmlns="http://www.w3.org/2000/svg">
<path d="M0 0.6875V4.25H33.8438V30.9688H22.8784C22.0839 27.9068 19.3301 25.625 16.0312 25.625C12.7324 25.625 9.97856 27.9068 9.18412 30.9688H7.125V22.0625H3.5625V34.5312H9.18412C9.97856 37.5932 12.7324 39.875 16.0312 39.875C19.3301 39.875 22.0839 37.5932 22.8784 34.5312H37.6841C38.4786 37.5932 41.2324 39.875 44.5312 39.875C47.8301 39.875 50.5839 37.5932 51.3784 34.5312H57V20.0034L56.8878 19.7237L53.3253 9.03622L52.9387 7.8125H37.4062V0.6875H0ZM1.78125 7.8125V11.375H17.8125V7.8125H1.78125ZM37.4062 11.375H50.3755L53.4375 20.5039V30.9688H51.3784C50.5839 27.9068 47.8301 25.625 44.5312 25.625C41.2324 25.625 38.4786 27.9068 37.6841 30.9688H37.4062V11.375ZM3.5625 14.9375V18.5H14.25V14.9375H3.5625ZM16.0312 29.1875C18.0209 29.1875 19.5938 30.7603 19.5938 32.75C19.5938 34.7397 18.0209 36.3125 16.0312 36.3125C14.0416 36.3125 12.4688 34.7397 12.4688 32.75C12.4688 30.7603 14.0416 29.1875 16.0312 29.1875ZM44.5312 29.1875C46.5209 29.1875 48.0938 30.7603 48.0938 32.75C48.0938 34.7397 46.5209 36.3125 44.5312 36.3125C42.5416 36.3125 40.9688 34.7397 40.9688 32.75C40.9688 30.7603 42.5416 29.1875 44.5312 29.1875Z" fill="#FF9900"/>
</svg>
