<svg width="29" height="21" viewBox="0 0 29 21" fill="none" xmlns="http://www.w3.org/2000/svg">
<path fill-rule="evenodd" clip-rule="evenodd" d="M4.24998 0.25C3.34382 0.25 2.47478 0.609969 1.83403 1.25072C1.19328 1.89147 0.833313 2.76051 0.833313 3.66667V8.79167C0.833313 9.69782 1.19328 10.5669 1.83403 11.2076C2.47478 11.8484 3.34382 12.2083 4.24998 12.2083H9.37498C9.37498 13.5676 8.83503 14.8711 7.8739 15.8323C6.91278 16.7934 5.60921 17.3333 4.24998 17.3333H2.54165C2.08857 17.3333 1.65405 17.5133 1.33367 17.8337C1.0133 18.1541 0.833313 18.5886 0.833313 19.0417C0.833313 19.4947 1.0133 19.9293 1.33367 20.2496C1.65405 20.57 2.08857 20.75 2.54165 20.75H4.24998C6.51537 20.75 8.68798 19.8501 10.2899 18.2482C11.8917 16.6463 12.7916 14.4737 12.7916 12.2083V3.66667C12.7916 2.76051 12.4317 1.89147 11.7909 1.25072C11.1502 0.609969 10.2811 0.25 9.37498 0.25H4.24998ZM19.625 0.25C18.7188 0.25 17.8498 0.609969 17.209 1.25072C16.5683 1.89147 16.2083 2.76051 16.2083 3.66667V8.79167C16.2083 9.69782 16.5683 10.5669 17.209 11.2076C17.8498 11.8484 18.7188 12.2083 19.625 12.2083H24.75C24.75 13.5676 24.21 14.8711 23.2489 15.8323C22.2878 16.7934 20.9842 17.3333 19.625 17.3333H17.9166C17.4636 17.3333 17.029 17.5133 16.7087 17.8337C16.3883 18.1541 16.2083 18.5886 16.2083 19.0417C16.2083 19.4947 16.3883 19.9293 16.7087 20.2496C17.029 20.57 17.4636 20.75 17.9166 20.75H19.625C21.8904 20.75 24.063 19.8501 25.6649 18.2482C27.2667 16.6463 28.1666 14.4737 28.1666 12.2083V3.66667C28.1666 2.76051 27.8067 1.89147 27.1659 1.25072C26.5252 0.609969 25.6561 0.25 24.75 0.25H19.625Z" fill="#FF9900"/>
</svg>
