<svg width="21" height="21" viewBox="0 0 21 21" fill="none" xmlns="http://www.w3.org/2000/svg">
<g clip-path="url(#clip0_50_892)">
<path d="M0.932122 10.004C0.931647 11.7054 1.37968 13.3667 2.2316 14.831L0.850647 19.834L6.0106 18.4915C7.43777 19.2624 9.03682 19.6664 10.6618 19.6665H10.666C16.0303 19.6665 20.397 15.3352 20.3993 10.0116C20.4003 7.43193 19.3887 5.00617 17.5509 3.18116C15.7134 1.3563 13.2695 0.350787 10.6656 0.349609C5.30074 0.349609 0.934416 4.6806 0.932201 10.004" fill="url(#paint0_linear_50_892)"/>
<path d="M0.584639 10.0007C0.584085 11.7633 1.04817 13.484 1.93047 15.0007L0.5 20.1831L5.84497 18.7925C7.31768 19.5892 8.97581 20.0093 10.663 20.0099H10.6674C16.2241 20.0099 20.7476 15.5229 20.75 10.0087C20.7509 7.33631 19.703 4.82335 17.7995 2.93295C15.8958 1.0428 13.3645 0.00109884 10.6674 0C5.10972 0 0.586854 4.4864 0.584639 10.0007ZM3.76776 14.7395L3.56819 14.4251C2.72924 13.1015 2.28643 11.5719 2.28706 10.0013C2.2888 5.41797 6.04803 1.68907 10.6706 1.68907C12.9091 1.69001 15.0129 2.5559 16.5953 4.12692C18.1775 5.6981 19.0482 7.78667 19.0477 10.0081C19.0456 14.5914 15.2863 18.3208 10.6674 18.3208H10.6641C9.16012 18.32 7.68511 17.9192 6.39876 17.1619L6.09264 16.9817L2.92082 17.8069L3.76776 14.7395Z" fill="url(#paint1_linear_50_892)"/>
<path d="M8.14742 5.82006C7.95869 5.40384 7.76006 5.39544 7.58058 5.38814C7.43361 5.38186 7.2656 5.38233 7.09774 5.38233C6.92973 5.38233 6.65675 5.44504 6.42601 5.69503C6.19504 5.94525 5.54419 6.54993 5.54419 7.77976C5.54419 9.00967 6.44698 10.1982 6.57283 10.3652C6.69884 10.5318 8.31567 13.1364 10.8763 14.1383C13.0045 14.971 13.4376 14.8054 13.8995 14.7637C14.3614 14.7221 15.39 14.1591 15.5999 13.5754C15.8099 12.9918 15.8099 12.4915 15.7469 12.3869C15.684 12.2828 15.516 12.2202 15.264 12.0953C15.012 11.9703 13.7734 11.3655 13.5425 11.2821C13.3116 11.1987 13.1436 11.1571 12.9756 11.4074C12.8076 11.6573 12.3252 12.2202 12.1781 12.3869C12.0312 12.5541 11.8842 12.5748 11.6323 12.4498C11.3802 12.3244 10.5689 12.0608 9.60629 11.2092C8.85736 10.5466 8.35174 9.72839 8.20477 9.47809C8.0578 9.22818 8.18903 9.09271 8.31535 8.96815C8.42855 8.85615 8.56737 8.67625 8.69346 8.53034C8.81907 8.38436 8.861 8.2802 8.945 8.11349C9.02909 7.94663 8.98701 7.80064 8.92412 7.67561C8.861 7.55057 8.37144 6.3143 8.14742 5.82006Z" fill="white"/>
</g>
<defs>
<linearGradient id="paint0_linear_50_892" x1="978.281" y1="1948.78" x2="978.281" y2="0.349609" gradientUnits="userSpaceOnUse">
<stop stop-color="#1FAF38"/>
<stop offset="1" stop-color="#60D669"/>
</linearGradient>
<linearGradient id="paint1_linear_50_892" x1="1013" y1="2018.31" x2="1013" y2="0" gradientUnits="userSpaceOnUse">
<stop stop-color="#F9F9F9"/>
<stop offset="1" stop-color="white"/>
</linearGradient>
<clipPath id="clip0_50_892">
<rect width="20.25" height="20.25" fill="white" transform="translate(0.5)"/>
</clipPath>
</defs>
</svg>
